<?xml version="1.0" encoding="UTF-8" standalone="no"?>
<!-- Generator: Adobe Illustrator 16.0.4, SVG Export Plug-In . SVG Version: 6.00 Build 0)  -->

<svg
   version="1.1"
   id="Ebene_1"
   x="0px"
   y="0px"
   width="661.19373"
   height="199.16096"
   viewBox="0 0 661.19372 199.16096"
   enable-background="new 0 0 841.89 595.28"
   xml:space="preserve"
   sodipodi:docname="logo_small_whitered.svg"
   inkscape:version="1.1.2 (b8e25be8, 2022-02-05)"
   xmlns:inkscape="http://www.inkscape.org/namespaces/inkscape"
   xmlns:sodipodi="http://sodipodi.sourceforge.net/DTD/sodipodi-0.dtd"
   xmlns:xlink="http://www.w3.org/1999/xlink"
   xmlns="http://www.w3.org/2000/svg"
   xmlns:svg="http://www.w3.org/2000/svg"><defs
   id="defs892" /><sodipodi:namedview
   id="namedview890"
   pagecolor="#ffffff"
   bordercolor="#666666"
   borderopacity="1.0"
   inkscape:pageshadow="2"
   inkscape:pageopacity="0.0"
   inkscape:pagecheckerboard="0"
   showgrid="false"
   inkscape:zoom="0.71513109"
   inkscape:cx="484.52655"
   inkscape:cy="13.284278"
   inkscape:window-width="1383"
   inkscape:window-height="969"
   inkscape:window-x="0"
   inkscape:window-y="44"
   inkscape:window-maximized="0"
   inkscape:current-layer="g887" />
<g
   id="g887"
   transform="translate(-89.932444,-174.243)">
	<defs
   id="defs876">
		<rect
   id="SVGID_1_"
   x="88.016998"
   y="174.243"
   width="665.85602"
   height="241.65401" />
	</defs>
	<clipPath
   id="SVGID_2_">
		<use
   xlink:href="#SVGID_1_"
   overflow="visible"
   id="use878"
   x="0"
   y="0"
   width="100%"
   height="100%" />
	</clipPath>
	<path
   clip-path="url(#SVGID_2_)"
   fill="#B2B2B2"
   d="m 705.994,311.797 c 0,0 -10.975,-18.721 -21.999,-17.357 -14.068,1.739 -9.889,21.595 -1.514,31.687 8.376,10.092 19.275,19.577 24.521,20.385 0,0 24.623,-14.252 27.448,-33.302 2.827,-19.05 -14.126,-27.853 -28.456,-1.413"
   id="path881"
   style="fill:#ca6a6b;fill-opacity:1" />
	<path
   clip-path="url(#SVGID_2_)"
   fill="#3C3C3B"
   d="m 599.452,309.212 c -1.845,3.625 -3.849,7.25 -6.014,10.876 -2.166,3.625 -4.424,7.032 -6.773,10.223 -2.349,3.191 -4.541,5.752 -6.567,7.686 -2.027,1.645 -3.662,2.465 -4.906,2.465 -1.244,0 -2.165,-0.628 -2.766,-1.885 -0.598,-1.255 -0.875,-2.974 -0.829,-5.148 0.048,-2.175 0.438,-4.615 1.176,-7.323 1.475,-5.895 3.456,-11.14 5.943,-15.732 2.488,-4.59 5.16,-8.193 8.019,-10.803 2.854,-2.61 5.781,-3.988 8.777,-4.134 2.994,-0.145 5.737,1.233 8.226,4.134 -1.016,2.803 -2.444,6.016 -4.286,9.641 M 477.72,209.375 c 2.627,-1.45 5.6,-2.368 8.918,-2.755 3.316,-0.385 6.865,-0.363 10.644,0.071 3.78,0.437 7.42,1.065 10.921,1.887 3.501,0.822 6.726,1.691 9.677,2.609 2.948,0.92 5.344,1.667 7.188,2.247 -1.106,5.028 -2.397,11.408 -3.87,19.142 -1.477,7.734 -2.951,16.121 -4.424,25.159 -1.476,9.039 -2.766,18.393 -3.871,28.059 -1.106,9.667 -1.797,18.973 -2.073,27.913 -0.277,8.942 -0.046,17.161 0.691,24.65 0.735,7.491 2.257,13.56 4.562,18.199 1.749,3.771 3.823,6.309 6.22,7.613 2.397,1.304 4.908,1.74 7.535,1.305 2.626,-0.435 5.229,-1.5 7.811,-3.19 2.578,-1.692 4.977,-3.603 7.188,-5.728 2.948,-2.805 5.852,-6.14 8.709,-10.006 2.855,-3.865 5.575,-7.975 8.156,-12.325 2.579,-4.35 4.976,-8.748 7.188,-13.195 2.212,-4.445 4.147,-8.7 5.807,-12.761 0.276,-0.676 0.139,-1.159 -0.414,-1.45 -0.553,-0.29 -1.017,-0.096 -1.383,0.58 -1.476,3.966 -3.318,8.171 -5.529,12.615 -2.212,4.448 -4.655,8.846 -7.327,13.196 -2.674,4.35 -5.484,8.435 -8.433,12.253 -2.95,3.817 -5.807,6.983 -8.571,9.498 -2.95,2.705 -5.806,4.59 -8.57,5.655 -2.765,1.062 -5.254,1.038 -7.465,-0.073 -2.212,-1.112 -4.057,-3.48 -5.53,-7.105 -1.475,-3.625 -2.442,-8.822 -2.902,-15.588 -0.554,-8.796 -0.484,-18.561 0.207,-29.291 0.691,-10.73 1.75,-21.605 3.18,-32.627 1.428,-11.02 3.087,-21.751 4.978,-32.19 1.887,-10.441 3.707,-19.816 5.46,-28.132 2.025,0.579 4.631,1.232 7.81,1.957 3.18,0.726 6.567,1.306 10.161,1.74 3.594,0.436 7.258,0.702 10.99,0.798 3.732,0.098 7.233,-0.218 10.506,-0.942 3.271,-0.726 6.128,-1.908 8.57,-3.553 2.441,-1.643 4.169,-3.963 5.185,-6.961 0.46,-0.482 0.367,-0.869 -0.276,-1.159 -0.646,-0.29 -1.105,-0.193 -1.383,0.29 -1.015,2.899 -2.674,5.1 -4.976,6.598 -2.306,1.5 -5.024,2.515 -8.156,3.045 -3.135,0.532 -6.477,0.653 -10.023,0.363 -3.549,-0.291 -7.027,-0.748 -10.437,-1.378 -3.411,-0.628 -6.635,-1.354 -9.677,-2.176 -3.041,-0.819 -5.577,-1.522 -7.604,-2.103 0.737,-3.285 1.404,-6.235 2.005,-8.845 0.599,-2.61 1.175,-5.026 1.729,-7.25 0.09,-0.29 -0.093,-0.847 -0.554,-1.668 -0.463,-0.82 -1.061,-1.474 -1.797,-1.958 -0.738,-0.482 -1.545,-0.627 -2.42,-0.436 -0.877,0.195 -1.589,1.113 -2.142,2.755 -0.739,1.936 -1.383,4.184 -1.937,6.743 -0.553,2.563 -1.291,5.245 -2.212,8.048 -2.121,-0.675 -4.793,-1.425 -8.017,-2.247 -3.228,-0.82 -6.658,-1.546 -10.299,-2.176 -3.641,-0.627 -7.372,-1.062 -11.198,-1.305 -3.823,-0.24 -7.417,-0.047 -10.782,0.58 -3.363,0.63 -6.336,1.765 -8.917,3.408 -2.579,1.645 -4.423,3.965 -5.528,6.96 -0.277,0.484 -0.185,0.942 0.275,1.378 0.462,0.435 0.691,0.412 0.691,-0.073 1.198,-2.993 3.11,-5.218 5.735,-6.668 m -14.032,63.223 c -1.015,0.775 -1.521,2.03 -1.521,3.771 0,1.645 0.46,2.973 1.384,3.987 0.92,1.016 2.072,1.572 3.455,1.667 1.289,0 2.42,-0.481 3.387,-1.449 0.968,-0.966 1.451,-2.223 1.451,-3.771 0,-1.74 -0.438,-3.067 -1.312,-3.988 -0.877,-0.917 -1.959,-1.377 -3.249,-1.377 -1.382,0 -2.581,0.387 -3.595,1.16 m -3.939,28.494 c -0.322,2.37 -0.574,5.052 -0.76,8.048 -0.184,2.997 -0.299,6.235 -0.346,9.715 -0.045,3.48 0.023,6.96 0.207,10.441 0.186,2.804 0.531,5.825 1.037,9.062 0.506,3.24 1.244,6.331 2.211,9.281 0.969,2.948 2.188,5.559 3.664,7.83 1.474,2.271 3.248,3.818 5.322,4.64 2.073,0.821 4.445,0.701 7.119,-0.361 2.672,-1.065 5.713,-3.434 9.124,-7.105 2.579,-2.708 5.136,-5.897 7.672,-9.57 2.534,-3.674 4.929,-7.516 7.188,-11.528 2.258,-4.01 4.377,-8.023 6.359,-12.035 1.98,-4.011 3.663,-7.758 5.045,-11.238 0.185,-0.386 0,-0.798 -0.553,-1.232 -0.552,-0.436 -0.967,-0.313 -1.244,0.362 -1.382,3.48 -3.041,7.178 -4.976,11.094 -1.937,3.915 -4.033,7.781 -6.29,11.6 -2.26,3.82 -4.655,7.493 -7.189,11.021 -2.535,3.526 -5.045,6.645 -7.533,9.352 -2.582,2.901 -4.862,4.641 -6.844,5.221 -1.982,0.58 -3.71,0.41 -5.184,-0.508 -1.475,-0.92 -2.674,-2.417 -3.594,-4.495 -0.922,-2.08 -1.683,-4.375 -2.281,-6.888 -0.6,-2.513 -1.037,-5.05 -1.312,-7.613 -0.277,-2.56 -0.416,-4.808 -0.416,-6.742 0,-3.19 0.069,-6.355 0.209,-9.498 0.137,-3.141 0.32,-6.112 0.553,-8.918 0.229,-2.803 0.504,-5.315 0.828,-7.541 0.322,-2.222 0.623,-4.01 0.899,-5.364 0.09,-1.354 -0.208,-2.561 -0.899,-3.625 -0.69,-1.063 -1.521,-1.788 -2.487,-2.175 -0.968,-0.386 -1.914,-0.363 -2.834,0.071 -0.923,0.436 -1.521,1.476 -1.798,3.118 -0.275,1.352 -0.575,3.212 -0.897,5.58 m -59.401,-14.791 c 0.415,-5.655 0.944,-11.647 1.59,-17.98 0.643,-6.33 1.404,-12.809 2.281,-19.432 0.874,-6.62 1.911,-13.123 3.11,-19.503 1.197,-6.38 2.557,-12.471 4.078,-18.271 1.521,-5.801 3.249,-10.971 5.184,-15.516 2.488,-5.801 5.46,-10.199 8.916,-13.195 3.456,-2.995 6.82,-4.325 10.092,-3.988 3.271,0.34 6.174,2.418 8.709,6.236 2.535,3.819 4.17,9.642 4.908,17.473 0.553,5.606 0.114,11.553 -1.313,17.836 -1.431,6.285 -3.456,12.615 -6.082,18.995 -2.628,6.381 -5.761,12.688 -9.401,18.924 -3.64,6.236 -7.374,12.108 -11.197,17.618 -3.825,5.51 -7.651,10.49 -11.474,14.936 -3.825,4.447 -7.257,8.073 -10.299,10.875 0.183,-4.35 0.483,-9.353 0.898,-15.008 m 9.608,6.887 c 3.961,-4.543 7.948,-9.617 11.957,-15.226 4.009,-5.605 7.88,-11.623 11.611,-18.053 3.734,-6.429 7.004,-12.929 9.815,-19.503 2.812,-6.573 4.953,-13.124 6.429,-19.649 1.474,-6.525 1.98,-12.736 1.521,-18.633 -0.462,-5.703 -1.499,-10.513 -3.11,-14.428 -1.613,-3.916 -3.572,-6.961 -5.875,-9.137 -2.305,-2.175 -4.839,-3.526 -7.604,-4.06 -2.764,-0.53 -5.577,-0.24 -8.432,0.87 -2.858,1.112 -5.6,2.998 -8.226,5.654 -2.627,2.66 -4.955,6.068 -6.982,10.224 -3.227,6.575 -5.968,14.525 -8.225,23.854 -2.259,9.33 -4.171,19.358 -5.737,30.089 -1.568,10.73 -2.788,21.776 -3.663,33.135 -0.877,11.359 -1.521,22.308 -1.935,32.844 -0.415,10.538 -0.692,20.326 -0.83,29.364 -0.138,9.037 -0.16,16.553 -0.069,22.548 0,1.16 0.324,2.198 0.968,3.118 0.643,0.917 1.382,1.472 2.211,1.667 0.83,0.192 1.659,-0.025 2.489,-0.652 0.829,-0.63 1.428,-1.863 1.797,-3.698 0.644,-3.189 1.244,-6.478 1.797,-9.859 0.553,-3.386 1.175,-6.743 1.866,-10.078 0.691,-3.336 1.497,-6.671 2.419,-10.006 0.921,-3.335 2.119,-6.549 3.595,-9.644 0.553,-1.062 1.106,-2.03 1.659,-2.899 0.553,-0.87 1.082,-1.377 1.589,-1.522 0.506,-0.145 0.944,0.194 1.314,1.015 0.367,0.822 0.598,2.393 0.691,4.713 0.091,2.029 -0.069,4.085 -0.484,6.162 -0.415,2.08 -1.061,3.988 -1.935,5.729 -0.877,1.74 -1.936,3.287 -3.18,4.64 -1.244,1.355 -2.557,2.368 -3.94,3.045 -0.462,0.193 -0.622,0.604 -0.484,1.233 0.139,0.627 0.53,0.942 1.175,0.942 1.936,0.192 3.456,0.603 4.562,1.232 1.106,0.627 1.957,1.425 2.558,2.393 0.598,0.966 1.013,2.053 1.244,3.263 0.229,1.208 0.484,2.538 0.76,3.988 0.737,4.734 1.59,8.312 2.558,10.729 0.967,2.416 2.05,3.915 3.248,4.495 1.197,0.581 2.534,0.363 4.009,-0.652 1.474,-1.015 3.132,-2.538 4.978,-4.567 2.672,-2.997 5.574,-7.011 8.709,-12.035 3.132,-5.028 6.197,-10.346 9.193,-15.951 2.993,-5.605 5.805,-11.213 8.432,-16.821 2.627,-5.604 4.861,-10.535 6.705,-14.79 0.091,-0.676 -0.047,-1.159 -0.416,-1.45 -0.368,-0.29 -0.828,-0.096 -1.381,0.58 -1.568,4.157 -3.711,9.062 -6.429,14.719 -2.72,5.654 -5.646,11.335 -8.778,17.038 -3.133,5.702 -6.244,10.996 -9.33,15.878 -3.09,4.881 -5.83,8.578 -8.227,11.093 -0.829,0.87 -1.682,1.643 -2.557,2.32 -0.877,0.675 -1.659,1.038 -2.35,1.088 -0.691,0.047 -1.268,-0.363 -1.728,-1.233 -0.462,-0.87 -0.646,-2.465 -0.553,-4.785 0.091,-2.029 0.16,-4.037 0.207,-6.018 0.046,-1.982 -0.138,-3.795 -0.553,-5.438 -0.415,-1.645 -1.222,-3.046 -2.419,-4.206 -1.199,-1.159 -2.951,-2.029 -5.253,-2.609 2.579,-1.933 4.538,-4.615 5.875,-8.048 1.335,-3.431 2.095,-6.79 2.281,-10.078 0.184,-3.285 -0.231,-6.113 -1.244,-8.482 -1.015,-2.368 -2.627,-3.503 -4.839,-3.408 -1.475,0.195 -2.719,0.992 -3.732,2.393 -1.015,1.402 -2.028,3.022 -3.041,4.857 -1.292,2.32 -2.329,4.858 -3.111,7.613 -0.784,2.755 -1.499,5.561 -2.142,8.41 -0.646,2.853 -1.223,5.703 -1.728,8.556 -0.508,2.851 -1.085,5.583 -1.728,8.193 -0.093,-6.381 0,-13.896 0.276,-22.549 0.277,-8.65 0.644,-18.102 1.106,-28.35 3.133,-2.901 6.682,-6.622 10.646,-11.167 m -61.308,16.024 c -1.845,3.625 -3.849,7.25 -6.014,10.876 -2.166,3.625 -4.423,7.032 -6.773,10.223 -2.35,3.19 -4.541,5.752 -6.567,7.686 -2.028,1.645 -3.663,2.465 -4.907,2.465 -1.244,0 -2.165,-0.628 -2.765,-1.885 -0.598,-1.255 -0.875,-2.974 -0.829,-5.148 0.047,-2.175 0.438,-4.615 1.175,-7.323 1.475,-5.895 3.456,-11.14 5.944,-15.732 2.488,-4.59 5.16,-8.193 8.018,-10.803 2.855,-2.61 5.782,-3.988 8.778,-4.134 2.994,-0.145 5.737,1.233 8.225,4.134 -1.015,2.803 -2.443,6.016 -4.285,9.641 m 13.686,-19.576 c -0.37,-0.82 -0.854,-1.377 -1.452,-1.667 -0.6,-0.29 -1.292,-0.218 -2.074,0.217 -0.784,0.436 -1.499,1.476 -2.142,3.118 l -2.212,6.525 c -3.687,-3.771 -7.672,-5.438 -11.958,-5.003 -4.285,0.435 -8.342,2.319 -12.165,5.655 -3.825,3.335 -7.095,7.83 -9.815,13.485 -2.717,5.655 -4.307,11.818 -4.769,18.489 -0.277,3.77 -0.046,6.72 0.691,8.845 0.739,2.127 1.797,3.505 3.18,4.133 1.382,0.627 2.95,0.627 4.7,0 1.749,-0.628 3.456,-1.763 5.115,-3.408 2.211,-2.029 4.492,-4.688 6.842,-7.975 2.35,-3.286 4.631,-6.743 6.843,-10.368 2.212,-3.625 4.238,-7.251 6.083,-10.876 1.842,-3.625 3.318,-6.79 4.423,-9.498 -1.198,4.835 -2.211,9.716 -3.041,14.646 -0.829,4.93 -1.475,9.62 -1.935,14.065 -0.277,3.19 -0.415,6.212 -0.415,9.062 0,2.853 0.207,5.388 0.622,7.613 0.415,2.223 0.989,4.06 1.728,5.511 0.737,1.45 1.75,2.465 3.041,3.045 2.212,0.965 4.608,0.82 7.189,-0.436 2.579,-1.258 5.205,-3.189 7.88,-5.801 2.671,-2.609 5.298,-5.702 7.879,-9.279 2.579,-3.575 4.977,-7.25 7.189,-11.021 2.212,-3.865 4.123,-7.587 5.737,-11.165 1.611,-3.575 2.924,-6.67 3.939,-9.28 0.277,-0.676 0.139,-1.159 -0.414,-1.45 -0.553,-0.29 -1.015,-0.096 -1.383,0.58 -0.738,2.225 -1.959,5.053 -3.663,8.482 -1.706,3.433 -3.756,7.323 -6.152,11.673 -1.935,3.385 -4.056,6.623 -6.359,9.716 -2.304,3.096 -4.609,5.729 -6.912,7.903 -2.304,2.175 -4.471,3.745 -6.497,4.712 -2.028,0.966 -3.687,1.015 -4.977,0.146 -0.829,-0.58 -1.406,-1.789 -1.728,-3.625 -0.324,-1.837 -0.507,-3.817 -0.553,-5.945 -0.047,-2.125 0,-4.205 0.139,-6.235 0.138,-2.029 0.252,-3.527 0.345,-4.495 0.277,-3.093 0.644,-6.331 1.106,-9.716 0.46,-3.383 1.013,-6.718 1.659,-10.005 0.644,-3.286 1.359,-6.453 2.143,-9.498 0.782,-3.045 1.59,-5.823 2.419,-8.338 0.184,-0.869 0.091,-1.714 -0.276,-2.537 M 252.959,279.123 c -0.691,-2.415 -1.659,-4.253 -2.903,-5.51 -1.244,-1.256 -2.648,-1.908 -4.216,-1.958 -1.566,-0.048 -3.132,0.412 -4.701,1.378 -1.382,0.87 -2.488,2.055 -3.317,3.553 -0.83,1.5 -1.452,3.167 -1.867,5.002 -0.414,1.838 -0.598,3.795 -0.553,5.873 0.048,2.08 0.255,4.085 0.623,6.018 1.015,5.125 2.695,9.186 5.045,12.181 2.35,2.998 4.955,5.126 7.811,6.381 2.855,1.257 5.713,1.717 8.571,1.377 2.855,-0.337 5.343,-1.327 7.465,-2.972 -0.646,3.675 -1.175,7.902 -1.59,12.688 -0.415,4.786 -0.532,9.57 -0.346,14.355 0.184,4.785 0.713,9.327 1.59,13.631 0.875,4.3 2.233,7.83 4.078,10.585 1.843,2.756 4.307,4.496 7.396,5.221 3.086,0.725 6.888,-0.123 11.405,-2.538 4.054,-2.127 7.879,-5.293 11.473,-9.498 3.595,-4.205 6.912,-8.918 9.954,-14.138 3.041,-5.22 5.806,-10.658 8.294,-16.313 2.488,-5.654 4.653,-11.043 6.497,-16.168 0.277,-0.676 0.139,-1.159 -0.414,-1.45 -0.553,-0.29 -1.016,-0.096 -1.383,0.58 -1.844,4.546 -4.009,9.596 -6.497,15.153 -2.488,5.561 -5.277,10.925 -8.363,16.095 -3.089,5.174 -6.407,9.812 -9.954,13.922 -3.549,4.107 -7.257,7.032 -11.128,8.772 -3.503,1.545 -6.314,1.644 -8.433,0.29 -2.121,-1.354 -3.732,-3.578 -4.838,-6.67 -1.106,-3.095 -1.797,-6.841 -2.074,-11.238 -0.276,-4.397 -0.324,-8.846 -0.138,-13.341 0.184,-4.495 0.553,-8.795 1.106,-12.906 0.553,-4.106 1.058,-7.467 1.521,-10.077 0.46,-1.546 0,-2.657 -1.383,-3.336 -1.382,-0.675 -3.134,-0.58 -5.253,0.29 -0.829,0.485 -1.844,1.016 -3.041,1.596 -1.199,0.58 -2.467,0.992 -3.802,1.232 -1.337,0.242 -2.764,0.242 -4.285,0 -1.521,-0.24 -3.02,-1.038 -4.493,-2.393 0.553,-2.223 1.128,-4.832 1.728,-7.83 0.598,-2.995 0.989,-5.896 1.175,-8.7 0.184,-3.674 -0.069,-6.719 -0.76,-9.137 m -7.672,19.068 c -1.29,-2.465 -1.981,-4.905 -2.074,-7.322 -0.277,-3.673 0.117,-6.719 1.175,-9.137 1.061,-2.415 2.212,-3.89 3.456,-4.422 1.244,-0.53 2.372,0.051 3.387,1.74 1.013,1.692 1.335,4.762 0.968,9.208 -0.186,2.61 -0.577,5.245 -1.175,7.903 -0.601,2.659 -1.176,5.1 -1.729,7.321 -1.382,-1.06 -2.717,-2.825 -4.008,-5.291 m -56.055,10.006 c 0.598,-1.788 1.313,-3.455 2.143,-5.003 0.829,-1.546 1.749,-2.9 2.764,-4.061 1.013,-1.16 2.165,-2.03 3.456,-2.61 1.75,-0.772 3.571,-0.819 5.461,-0.145 1.888,0.677 3.063,2.225 3.525,4.64 0.46,2.61 0.069,4.764 -1.175,6.453 -1.244,1.693 -2.903,2.998 -4.977,3.915 -2.073,0.92 -4.285,1.523 -6.635,1.813 -2.35,0.29 -4.355,0.387 -6.014,0.29 0.367,-1.739 0.851,-3.502 1.452,-5.292 m 5.599,7.25 c 2.671,-0.436 5.114,-1.256 7.326,-2.466 2.212,-1.207 3.962,-2.826 5.253,-4.856 1.29,-2.031 1.659,-4.543 1.106,-7.541 -0.646,-3.285 -2.212,-5.438 -4.7,-6.453 -2.488,-1.015 -5.024,-1.377 -7.603,-1.087 -3.687,0.387 -6.821,2.127 -9.4,5.22 -2.582,3.095 -4.493,6.84 -5.737,11.238 -1.244,4.4 -1.774,9.062 -1.59,13.993 0.186,4.93 1.175,9.451 2.972,13.558 1.797,4.11 4.445,7.468 7.949,10.078 3.501,2.61 7.97,3.721 13.409,3.335 4.977,-0.29 9.653,-1.667 14.031,-4.132 4.377,-2.465 8.409,-5.631 12.096,-9.498 3.685,-3.865 7.003,-8.266 9.954,-13.196 2.948,-4.93 5.529,-10.053 7.741,-15.37 0.184,-0.676 0.069,-1.159 -0.346,-1.45 -0.414,-0.29 -0.898,-0.096 -1.451,0.58 -1.935,4.836 -4.355,9.643 -7.258,14.429 -2.903,4.785 -6.151,9.088 -9.746,12.904 -3.594,3.82 -7.512,6.913 -11.75,9.281 -4.24,2.367 -8.709,3.502 -13.409,3.407 -3.318,-0.097 -6.152,-1.04 -8.502,-2.827 -2.35,-1.788 -4.171,-4.133 -5.46,-7.033 -1.292,-2.899 -2.121,-6.234 -2.489,-10.006 -0.369,-3.77 -0.276,-7.731 0.277,-11.89 2.212,0.29 4.652,0.217 7.327,-0.218 m -103.54,-4.712 c -0.322,2.029 -0.598,4.35 -0.829,6.96 -0.229,2.609 -0.391,5.293 -0.484,8.048 -0.091,2.755 -0.046,5.293 0.138,7.612 0.186,2.32 0.577,4.23 1.175,5.728 0.601,1.5 1.497,2.248 2.696,2.248 1.013,0 2.004,-0.604 2.972,-1.813 0.968,-1.207 1.957,-2.776 2.972,-4.712 1.106,-2.803 2.188,-6.258 3.249,-10.368 1.058,-4.107 2.188,-8.24 3.387,-12.397 1.196,-4.156 2.464,-8.048 3.801,-11.673 1.335,-3.625 2.787,-6.356 4.355,-8.193 0.736,-0.675 1.404,-1.11 2.004,-1.305 0.598,-0.193 1.106,-0.073 1.521,0.361 0.415,0.436 0.736,1.283 0.967,2.538 0.229,1.257 0.346,3.045 0.346,5.365 0,1.548 -0.231,3.94 -0.691,7.178 -0.462,3.24 -0.83,6.67 -1.106,10.295 -0.276,3.626 -0.346,7.132 -0.207,10.514 0.138,3.385 0.805,5.945 2.004,7.686 1.29,1.74 2.558,2.37 3.802,1.885 1.244,-0.482 2.602,-1.545 4.078,-3.189 1.106,-1.256 2.164,-2.852 3.179,-4.786 1.013,-1.932 1.981,-3.842 2.903,-5.727 0.92,-1.886 1.75,-3.625 2.489,-5.222 0.736,-1.595 1.334,-2.729 1.797,-3.406 1.196,-1.546 1.911,-1.764 2.142,-0.653 0.229,1.113 0.346,3.215 0.346,6.308 0,1.646 -0.117,4.061 -0.346,7.25 -0.231,3.191 -0.3,6.479 -0.207,9.861 0.091,3.385 0.46,6.55 1.106,9.498 0.644,2.947 1.888,4.953 3.732,6.018 1.29,0.772 2.534,1.16 3.733,1.16 1.197,0 2.395,-0.218 3.594,-0.653 1.197,-0.435 2.35,-1.015 3.456,-1.739 1.106,-0.726 2.164,-1.476 3.18,-2.248 2.579,-2.127 5.091,-4.785 7.534,-7.976 2.44,-3.189 4.745,-6.598 6.912,-10.223 2.164,-3.625 4.168,-7.396 6.013,-11.31 1.843,-3.916 3.409,-7.708 4.7,-11.384 0.184,-0.58 0,-1.062 -0.553,-1.45 -0.553,-0.386 -0.967,-0.192 -1.244,0.58 -1.199,3.48 -2.696,7.105 -4.493,10.875 -1.797,3.771 -3.78,7.445 -5.944,11.021 -2.166,3.577 -4.447,6.912 -6.843,10.005 -2.397,3.095 -4.793,5.655 -7.188,7.686 -1.106,0.966 -2.19,1.668 -3.249,2.103 -1.06,0.435 -2.028,0.507 -2.903,0.217 -0.877,-0.29 -1.637,-1.063 -2.281,-2.319 -0.646,-1.258 -1.106,-3.141 -1.382,-5.655 -0.186,-1.644 -0.208,-4.155 -0.069,-7.54 0.138,-3.383 0.183,-6.838 0.138,-10.368 -0.048,-3.528 -0.346,-6.718 -0.899,-9.571 -0.553,-2.85 -1.613,-4.566 -3.179,-5.146 -1.383,-0.483 -2.696,-0.313 -3.94,0.507 -1.244,0.823 -2.236,1.812 -2.972,2.973 -0.37,0.58 -0.946,1.766 -1.728,3.553 -0.784,1.79 -1.659,3.675 -2.627,5.655 -0.967,1.982 -1.935,3.893 -2.903,5.728 -0.967,1.838 -1.821,3.095 -2.557,3.771 -1.106,1.064 -1.89,1.064 -2.35,0 -0.463,-1.062 -0.415,-3.673 0.138,-7.831 0.367,-2.125 0.806,-4.833 1.313,-8.12 0.506,-3.284 0.806,-6.598 0.899,-9.933 0.091,-3.335 -0.117,-6.525 -0.622,-9.571 -0.508,-3.045 -1.59,-5.437 -3.249,-7.177 -1.752,-1.74 -3.411,-2.175 -4.977,-1.305 -1.568,0.87 -3.041,2.175 -4.423,3.915 -1.752,2.515 -3.249,5.535 -4.493,9.062 -1.244,3.53 -2.419,7.228 -3.525,11.093 -1.106,3.867 -2.19,7.759 -3.249,11.674 -1.06,3.915 -2.281,7.517 -3.663,10.803 -0.553,0.967 -0.946,1.064 -1.175,0.29 -0.231,-0.773 -0.37,-2.005 -0.415,-3.698 -0.047,-1.689 0,-3.72 0.138,-6.09 0.139,-2.368 0.298,-4.663 0.484,-6.888 0.184,-2.224 0.367,-4.229 0.553,-6.019 0.184,-1.787 0.322,-3.02 0.415,-3.697 0.091,-0.772 -0.186,-1.497 -0.83,-2.176 -0.645,-0.675 -1.382,-1.135 -2.211,-1.377 -0.83,-0.24 -1.638,-0.168 -2.42,0.217 -0.784,0.389 -1.222,1.21 -1.313,2.466 -0.091,0.77 -0.298,2.171 -0.622,4.201 m 586.981,48.585 c 13.916,-3.714 27.965,-9.779 39.746,-19.125 0.614,-0.487 12.611,-9.206 19.031,-23.933 2.117,-4.945 3.65,-10.914 1.815,-16.174 -1.901,-5.449 -8.1,-7.971 -13.468,-6.778 -2.629,0.583 -4.97,2.109 -7.264,3.445 -2.462,1.433 -4.684,3.036 -6.707,5.056 -3.198,3.191 -6.771,7.729 -7.623,12.305 1.398,-0.809 2.797,-1.615 4.195,-2.424 -3.184,-8.75 -10.603,-19.758 -21.105,-18.962 -2.918,0.222 -5.331,1.477 -7.801,2.902 -1.602,0.925 -3.216,1.783 -4.497,3.141 -2.019,2.141 -2.929,5.075 -3.137,7.956 -0.63,8.718 4.572,17.18 10.077,23.469 9.636,11.005 23.015,18.572 36.557,23.604 12.984,5.441 20.553,6.166 30.801,7.557 4.139,0.562 1.184,-0.939 1.569,-0.877 -20.758,-1.875 -38.433,-10.174 -50.456,-17.777 -9.467,-6.098 -17.707,-16.622 -22.176,-27.17 -2.481,-5.857 -3.754,-13.863 0.852,-19.063 0.431,-0.484 0.915,-0.917 1.429,-1.311 2.159,-1.654 -3.855,2.088 -2.588,1.432 0.556,-0.288 1.149,-0.498 1.738,-0.704 3.249,-1.136 6.729,-0.998 9.904,0.283 5.59,2.256 9.505,7.721 12.279,12.838 0.889,1.642 1.719,3.35 2.358,5.107 -0.129,-0.354 4.09,-1.852 4.195,-2.424 0.518,-2.779 2.19,-5.384 3.772,-7.669 2.288,-3.309 5.169,-6.306 8.561,-8.488 -4.665,3.002 -1.52,0.931 0.007,0.434 0.849,-0.276 1.728,-0.43 2.611,-0.53 2.003,-0.229 7.293,1.643 9.091,5.807 2.905,6.726 1.323,18.356 -2.837,24.312 0,0 -4.96,6.905 -9.865,11.29 -9.541,8.53 -19.537,13.46 -19.537,13.46 -6.883,2.693 -14.048,4.917 -21.213,6.637 -0.982,0.235 -1.965,0.462 -2.945,0.679 -1.25,0.274 -2.498,0.535 -3.743,0.78 -30.336,5.949 -59.089,2.552 -64.644,-13.131 -2.152,-6.08 -1.952,-10.584 -1.479,-15.792 0.32,-3.54 1.17,-7.672 1.415,-9.466 0.46,-3.383 1.013,-6.718 1.659,-10.005 0.644,-3.286 1.358,-6.453 2.143,-9.498 0.782,-3.045 1.59,-5.823 2.419,-8.338 0.184,-0.87 0.091,-1.715 -0.276,-2.538 -0.369,-0.82 -0.854,-1.377 -1.451,-1.667 -0.601,-0.29 -1.293,-0.218 -2.074,0.217 -0.784,0.436 -1.499,1.476 -2.143,3.118 l -2.212,6.525 c -3.687,-3.771 -7.672,-5.438 -11.958,-5.003 -4.285,0.435 -8.342,2.319 -12.165,5.655 -3.824,3.335 -7.095,7.83 -9.814,13.485 -2.717,5.655 -4.308,11.818 -4.77,18.489 -0.276,3.77 -0.046,6.72 0.691,8.845 0.739,2.127 1.797,3.505 3.18,4.133 1.382,0.627 2.95,0.627 4.7,0 1.749,-0.628 3.456,-1.763 5.115,-3.408 2.211,-2.029 4.492,-4.688 6.842,-7.975 2.351,-3.286 4.631,-6.743 6.843,-10.368 2.212,-3.625 4.238,-7.251 6.083,-10.876 1.842,-3.625 3.318,-6.79 4.423,-9.498 -1.197,4.835 -2.211,9.716 -3.041,14.646 -0.829,4.93 -1.475,9.62 -1.935,14.065 -0.901,4.688 0.281,24.953 17.741,31.47 8.629,3.221 31.253,4.59 55.285,-0.755"
   id="path883"
   style="fill:#ffffff" />
	
</g>
</svg>
