<?xml version="1.0" encoding="UTF-8" standalone="no"?>
<!-- Generator: Adobe Illustrator 16.0.4, SVG Export Plug-In . SVG Version: 6.00 Build 0)  -->

<svg
   version="1.1"
   id="Ebene_1"
   x="0px"
   y="0px"
   width="661.19373"
   height="199.16096"
   viewBox="0 0 661.19372 199.16096"
   enable-background="new 0 0 841.89 595.28"
   xml:space="preserve"
   xmlns:xlink="http://www.w3.org/1999/xlink"
   xmlns="http://www.w3.org/2000/svg"
   xmlns:svg="http://www.w3.org/2000/svg"><defs
   id="defs892" />
<g
   id="g887"
   transform="translate(-89.932444,-174.243)">
	<defs
   id="defs876">
		<rect
   id="SVGID_1_"
   x="88.016998"
   y="174.243"
   width="665.85602"
   height="241.65401" />
	</defs>
	<clipPath
   id="SVGID_2_">
		<use
   xlink:href="#SVGID_1_"
   overflow="visible"
   id="use878"
   x="0"
   y="0"
   width="100%"
   height="100%" />
	</clipPath>
	
	<path
   id="path883"
   clip-path="url(#SVGID_2_)"
   style="fill:#353e59;fill-opacity:1"
   d="m 431.53516,170.24805 c -6.16527,0.16797 -11.85291,3.43672 -16.10743,7.74023 -5.53322,5.48802 -8.82011,12.7246 -11.55855,19.90593 -4.24168,11.34437 -6.65556,23.25934 -8.85147,35.13783 -4.3224,24.28202 -6.16757,48.92102 -7.3263,73.53241 -1.73639,4.76916 -4.15629,9.25048 -6.49371,13.74401 -2.28681,4.31953 -4.66943,8.59908 -7.50242,12.58936 -3.19696,4.50437 -6.75999,8.87013 -11.25379,12.14246 -0.90638,0.62763 -1.8776,1.17559 -2.92196,1.53784 -0.76877,-2.97586 -0.73203,-6.0887 -0.70964,-9.14171 0.19557,-6.4861 0.99914,-12.93733 1.89714,-19.35829 1.29308,-8.53425 3.22982,-16.97345 5.84023,-25.20027 0.74258,-3.5671 -1.23074,-7.72748 -4.81093,-8.85441 -3.14807,-0.92216 -6.54692,1.07058 -7.90728,3.92746 -0.5724,1.01937 -0.985,2.11912 -1.35053,3.22683 -3.58045,-2.11723 -7.91991,-2.92742 -12.0098,-2.10611 -6.61288,1.13886 -12.34499,5.27208 -16.61844,10.30458 -1.03231,1.14854 -1.90766,2.46152 -2.85419,3.6531 -1.87497,0.73405 -2.86877,2.63254 -3.47968,4.43434 -4.45478,10.71096 -9.03482,21.44303 -15.25705,31.27201 -0.77949,1.24963 -1.70456,2.63655 -2.4703,3.74873 -2.65257,3.76247 -5.45918,7.46176 -8.81054,10.63476 -2.66213,2.43662 -5.75235,4.63135 -9.33204,5.41211 -1.08269,0.20393 -2.21645,-0.16036 -2.92187,-1.01953 -2.23702,-2.32162 -2.9022,-5.62193 -3.51829,-8.67288 -0.93224,-5.56595 -0.90748,-11.23728 -0.80963,-16.8631 0.15573,-5.83202 0.75446,-11.82535 1.63567,-17.6626 0.3394,-2.57622 0.83162,-5.13095 1.21764,-7.69791 0.19634,-3.06476 -2.13156,-5.90532 -5.06337,-6.6234 -3.14162,-0.94449 -6.51147,0.0436 -9.22651,1.71 -2.28506,1.26311 -5.04644,2.18999 -7.632,1.34505 1.64448,-7.24531 3.15144,-14.73918 2.07758,-22.18463 -0.65177,-4.2617 -2.39245,-8.6533 -5.94086,-11.30952 -2.63371,-1.9217 -6.17332,-2.40197 -9.25388,-1.37521 -4.0824,1.21557 -7.33703,4.52702 -8.85453,8.46346 -2.51725,5.94973 -2.33939,12.68037 -0.98308,18.89174 1.21579,5.56262 3.61279,11.015 7.70477,15.06689 -4.27152,8.99287 -9.76387,17.57114 -17.16291,24.31556 -3.77623,3.34516 -8.0547,6.35045 -12.96185,7.73643 -3.17369,0.85056 -6.63314,1.15591 -9.8029,0.13762 -3.76575,-1.39361 -6.28909,-4.94453 -7.47378,-8.65901 -1.45832,-4.23536 -1.79845,-8.76946 -1.61809,-13.22005 0.11776,-0.25063 -0.23085,-1.32817 0.49854,-1.11243 5.99678,-0.26487 12.18053,-2.11378 16.61475,-6.31335 2.77315,-2.64252 4.69615,-6.34275 4.57771,-10.23788 0.0411,-4.25819 -1.45903,-8.82925 -4.9905,-11.43895 -2.78581,-2.00275 -6.29168,-2.75196 -9.66925,-2.86419 -4.98625,-0.0729 -10.00678,1.95773 -13.36117,5.68445 -3.8323,4.00045 -6.22794,9.1526 -7.7041,14.44083 -2.1554,5.60871 -4.86544,11.08386 -7.88673,16.32385 -1.67442,2.88727 -3.48515,5.69525 -5.42104,8.41415 -0.36884,0.50576 -0.92197,1.27777 -1.37827,1.87499 -2.57189,3.3937 -5.33276,6.74376 -8.80974,9.24951 -0.43913,0.31476 -1.00548,0.68824 -1.1147,-0.10719 -0.64145,-1.79127 -0.81538,-3.7172 -0.91409,-5.60715 -0.0236,-0.43374 -0.0283,-1.23874 -0.0289,-1.81483 0.0604,-4.14225 0.30181,-8.28158 0.2328,-12.42619 -0.041,-4.88234 -0.24314,-9.85294 -1.69803,-14.54805 -0.96876,-2.76052 -3.19081,-5.26584 -6.16857,-5.80286 -2.91974,-0.69122 -5.95802,0.56367 -8.08145,2.55969 -2.72778,2.32885 -3.88981,5.82392 -5.3596,8.97426 -0.26444,0.58474 -0.54188,1.16347 -0.81226,1.74548 1.33448,-8.27536 2.06083,-16.84462 0.20976,-25.10058 -1.01579,-4.02831 -3.43267,-8.00858 -7.36308,-9.72776 -2.50298,-1.07197 -5.47951,-0.48562 -7.59082,1.16623 -3.24138,2.18332 -5.54501,5.46769 -7.20723,8.95342 -2.15442,4.32591 -3.49152,8.98829 -4.94511,13.57978 -0.23719,-3.76948 -3.766125,-6.67438 -7.380859,-7.04101 -3.070228,-0.31142 -6.390503,1.66166 -7.065826,4.77519 -0.47785,2.05971 -0.616329,4.17897 -0.989088,6.25868 -0.941956,6.65782 -1.415613,13.39422 -1.265399,20.11847 0.13807,3.91111 0.45932,8.03155 2.511719,11.4668 1.605951,2.46022 4.933946,3.67867 7.705581,2.58216 2.972153,-1.05229 4.705932,-3.89274 6.267482,-6.4482 1.74051,-2.87995 2.58035,-6.17116 3.56392,-9.3586 1.56025,-5.48028 2.89313,-11.08455 4.53457,-16.49448 1.41285,-4.75319 2.86471,-9.5195 4.88522,-14.05462 0.22755,-0.42904 0.0453,0.93639 0.0712,1.2664 -0.21495,4.1054 -1.01415,8.15133 -1.37053,12.24447 -0.60413,5.89249 -0.94565,11.85146 -0.37962,17.76001 0.42568,3.71726 1.88472,7.5848 5.0464,9.8134 2.18658,1.56682 5.3064,1.54509 7.49801,-0.003 4.1099,-2.4686 6.71485,-6.68532 8.77071,-10.89092 0.2885,-0.56513 0.58293,-1.12744 0.86799,-1.69421 -0.44466,7.29205 -0.50184,14.73602 1.34961,21.85547 0.94201,3.27501 3.11291,6.30113 6.27539,7.72852 3.45391,1.75879 7.63136,1.3139 11.04692,-0.30823 3.16082,-1.47362 5.99262,-3.59503 8.54347,-5.95544 5.40565,-5.09352 9.55134,-11.33568 13.40143,-17.63973 0.29259,-0.50155 0.31451,0.79075 0.50258,1.11857 1.69411,6.09792 5.06371,11.83247 10.06526,15.78984 3.17366,2.59683 7.09716,4.22122 11.17256,4.66023 5.09477,0.58722 10.3054,-0.0942 15.16537,-1.68655 7.01664,-2.40659 13.15722,-6.87829 18.39099,-12.06005 6.99569,-7.00356 12.28277,-15.51435 16.57861,-24.38349 3.63972,1.36113 7.67324,1.70662 11.47461,0.86328 -1.4199,11.95034 -1.61093,24.19518 0.97976,36.0032 1.1823,5.10231 3.18864,10.26155 7.0363,13.95422 3.79863,3.58253 9.48203,5.05256 14.52152,3.61827 5.18908,-1.31316 9.8924,-4.14636 13.95761,-7.57326 5.3398,-4.59632 9.54164,-10.33647 13.39331,-16.19137 1.11694,-1.73638 2.17695,-3.50916 3.20525,-5.29934 1.187,2.9736 3.69843,5.60075 6.95423,6.1434 3.76709,0.74031 7.55207,-0.90643 10.44895,-3.2301 4.90038,-4.05267 8.65124,-9.27329 12.15295,-14.52994 0.84708,-1.27413 1.67174,-2.56298 2.4927,-3.85406 -0.75246,6.47382 -1.21174,13.0468 -0.43315,19.5404 0.47155,3.35188 1.30875,6.74902 3.11657,9.64603 2.03945,3.10822 5.82445,4.84045 9.50512,4.5744 4.31384,-0.27538 8.05784,-2.7835 11.33575,-5.40282 5.66532,-4.6699 10.10458,-10.61185 14.19244,-16.65871 1.42052,-2.12161 2.78032,-4.28361 4.07429,-6.48446 -0.25686,10.84873 -0.40607,21.70447 -0.2227,32.55461 0.25941,3.71636 2.98328,7.41353 6.79638,7.99212 3.52068,0.54296 6.97694,-2.05545 7.9478,-5.38852 0.93071,-2.84879 1.25569,-5.84573 1.84904,-8.77359 0.39738,-2.21953 0.73698,-4.42352 1.14119,-6.64048 1.55536,0.0963 3.26529,0.76836 3.85938,2.33203 0.36332,1.09438 0.49196,2.06494 0.72992,3.21633 1.07179,5.55269 1.69055,11.38794 4.57653,16.37071 1.45692,2.57987 4.23025,4.65352 7.30371,4.41152 2.82351,-0.1514 5.16289,-1.95441 7.15736,-3.79836 4.92641,-4.49125 8.63949,-10.10149 12.1875,-15.6944 5.41726,-8.66629 10.28937,-17.66453 14.79693,-26.83392 0.68048,7.67961 1.91869,15.45834 5.17048,22.51236 1.74294,3.6259 3.99119,7.27277 7.57366,9.32748 2.66422,1.61146 5.9188,2.12682 8.95703,1.4668 5.04005,-1.01337 9.14498,-4.42515 12.63135,-8.02305 6.96136,-7.12091 12.30304,-15.62117 17.15167,-24.26728 0.26219,-0.46515 0.60592,-1.32056 0.54328,-0.36354 0.50075,8.66809 1.39728,17.53126 4.97449,25.54645 1.7008,3.69535 3.82997,7.42102 7.29492,9.72851 3.71229,2.57246 8.55273,3.24997 12.88684,2.08218 4.88861,-1.20508 9.08693,-4.1886 12.90807,-7.35235 7.30609,-6.23088 12.96158,-14.11506 18.06641,-22.181 0.85224,3.29152 2.88814,6.61941 6.24476,7.78417 2.91761,1.10099 6.19807,0.51838 8.89319,-0.91435 3.45516,-1.81857 6.13109,-4.7615 8.66432,-7.66685 3.31752,-3.9533 6.14072,-8.28518 8.92234,-12.62289 -0.34186,2.96733 -0.80762,5.94444 -0.55664,8.93945 0.41048,6.5486 2.38082,13.05389 5.95491,18.57631 3.77167,5.78824 9.59832,10.22448 16.2444,12.16202 5.0156,1.49385 10.26365,1.9966 15.46716,2.32043 12.6895,0.70205 25.44896,-0.44728 37.89475,-2.95622 12.11392,-2.50701 23.99844,-6.41107 34.92902,-12.25293 5.18568,2.52649 10.59267,4.55586 15.96679,6.63672 6.72153,2.46366 13.73199,4.09287 20.83117,4.98677 2.67624,0.35731 5.34965,0.83381 8.04774,0.96245 1.67647,-0.0397 3.41375,-0.9379 4.11524,-2.50976 0.82614,-0.43066 1.81578,-0.59701 2.51484,-1.23267 0.28341,-0.49936 0.80627,-0.94882 0.53596,-1.56846 -0.0271,-0.55917 -0.1239,-1.0819 -0.65823,-1.3727 -0.82725,-0.71166 -2.01131,-0.79301 -2.98991,-1.23534 -1.62411,-0.55763 -3.24399,-1.21184 -4.9845,-1.24757 -11.5561,-1.24537 -22.83237,-4.62905 -33.35176,-9.53467 6.20429,-4.26239 11.91515,-9.29979 16.56696,-15.23779 4.60547,-5.8381 8.42896,-12.43141 10.37887,-19.64607 1.29883,-4.9973 1.40441,-10.59344 -1.07321,-15.25486 -2.62265,-4.80033 -8.09499,-7.61812 -13.48379,-7.64155 -3.73439,-0.0667 -7.30063,1.38137 -10.4361,3.30555 -3.91229,2.20302 -7.66934,4.78891 -10.64038,8.19127 -0.36686,0.55118 -0.60709,-0.63527 -0.93558,-0.8283 -3.34785,-4.74747 -7.99918,-8.90497 -13.72246,-10.41234 -4.17283,-1.10311 -8.72242,-0.58946 -12.56153,1.37724 -2.51163,1.07349 -4.82378,2.57193 -6.98086,4.23574 -3.71182,2.96904 -5.38385,7.83379 -5.51609,12.46573 -0.22439,6.99515 2.58985,13.733 6.44431,19.44336 5.71462,8.44201 13.53622,15.2905 22.12978,20.69147 -14.10736,5.18054 -28.9337,8.53545 -43.94868,9.46492 -8.77847,0.47835 -17.72298,0.22547 -26.24704,-2.11165 -4.54784,-1.28157 -9.11636,-3.27209 -12.35701,-6.82007 -2.2421,-2.512 -3.17771,-5.85707 -3.69403,-9.11013 -0.35338,-2.39182 -0.33419,-4.82255 -0.14191,-7.22776 0.0713,-0.84638 0.15593,-1.98269 0.27074,-2.93675 0.42453,-3.54987 1.20065,-7.24421 1.66299,-10.8721 1.28689,-8.46415 3.22717,-16.82881 5.80732,-24.99096 0.74123,-3.56314 -1.22593,-7.71732 -4.79964,-8.84862 -3.15072,-0.9285 -6.54951,1.06228 -7.91672,3.91787 -0.57008,1.02171 -0.99069,2.11954 -1.35086,3.23056 -3.61151,-2.13522 -7.99244,-2.93296 -12.11224,-2.08716 -6.57929,1.16777 -12.27335,5.28847 -16.5317,10.29979 -1.02361,1.19507 -1.97434,2.4518 -2.85997,3.75222 -1.83437,0.8165 -2.69319,2.76418 -3.28006,4.55774 -4.27779,10.7012 -9.85777,20.87076 -16.41562,30.34119 -3.98908,5.69806 -8.3269,11.26802 -13.75683,15.67154 -2.2474,1.73928 -4.77336,3.44515 -7.68068,3.68974 -1.77986,0.0316 -3.23865,-1.24573 -4.06173,-2.72552 -2.40803,-3.84007 -3.05264,-8.44122 -3.62997,-12.85057 -0.35463,-3.11557 -0.5327,-6.28408 -0.62541,-9.30336 -0.17545,-5.26063 -0.14499,-10.57089 0.0495,-15.76772 0.12714,-3.2259 0.27948,-6.39501 0.50575,-9.53927 1.38756,-20.49692 4.13202,-40.90829 7.71437,-61.20131 1.51273,-8.46924 3.13708,-16.99684 4.86813,-25.45645 6.98698,1.77601 14.13245,2.92408 21.33068,3.34738 7.33134,0.52338 14.96367,0.23064 21.79807,-2.73748 3.78229,-1.65085 7.32913,-4.22661 9.32468,-7.92093 0.69565,-1.2369 1.25457,-2.54526 1.8122,-3.84326 0.66455,-2.14606 -0.51781,-4.59453 -2.56259,-5.48606 -2.26953,-1.22422 -5.52829,-0.48356 -6.6796,1.92942 -0.67719,1.45758 -1.20909,3.04475 -2.4387,4.15626 -2.62117,2.43802 -6.27287,3.32418 -9.73426,3.72882 -5.62329,0.58246 -11.26844,-0.27238 -16.80875,-1.1877 -4.62024,-0.80692 -9.1669,-1.97261 -13.67845,-3.24426 0.96854,-4.40155 2.07114,-8.78338 3.03113,-13.1799 -0.0665,-2.79597 -1.81226,-5.33112 -4.00795,-6.94442 -2.51658,-1.77324 -6.33992,-1.7912 -8.54661,0.50518 -1.91259,1.93619 -2.49006,4.70115 -3.30689,7.20215 -0.71813,2.53873 -1.21417,5.13377 -1.90796,7.67871 -9.85679,-2.74295 -20.00451,-4.7344 -30.26367,-4.86523 -6.66733,0.0357 -13.58347,1.33781 -19.15117,5.19359 -3.2795,2.32677 -5.77436,5.82223 -6.7668,9.72437 -0.46313,3.06892 2.38567,6.14526 5.49682,5.81346 1.3025,-0.26355 2.59832,-1.01544 3.09889,-2.3115 0.56082,-1.67753 1.47151,-3.27873 2.89187,-4.37767 2.26483,-1.7618 5.12416,-2.5565 7.91086,-3.03444 3.49437,-0.53235 7.20986,-0.3956 10.61524,-0.0254 4.08836,0.46834 8.14215,1.21989 12.13476,2.21484 0.75334,0.19956 1.77603,0.45906 2.63281,0.68164 0.57641,0.15791 1.47721,0.41234 2.17804,0.60727 2.19076,0.62473 4.40023,1.30522 6.53681,1.97476 -3.48679,16.68094 -6.50246,33.46102 -9.01882,50.31564 -2.01105,13.92356 -3.69301,27.91164 -4.34642,41.97147 -4.69138,10.89968 -10.45796,21.3627 -17.4135,30.9847 -2.68714,3.63525 -5.51509,7.19582 -8.7523,10.35936 -1.22793,1.12469 -2.73669,2.43901 -4.52365,2.17743 -1.66419,-0.63322 -2.32146,-2.49767 -2.95843,-4.00809 -2.20331,-5.64603 -2.9957,-11.74276 -3.19271,-17.76794 -0.0713,-5.13622 0.16389,-10.19273 0.46971,-15.33052 0.25833,-4.19351 0.68369,-8.37693 1.30643,-12.53213 0.0552,-0.35113 0.19631,-1.12851 0.29321,-1.64231 0.42263,-1.99217 0.65126,-4.10448 -0.0629,-6.06199 -1.12892,-3.62185 -4.57406,-6.65869 -8.48302,-6.57392 -2.95375,0.0362 -5.77321,2.10883 -6.54794,4.98577 -0.78308,2.52138 -1.0064,5.1706 -1.42123,7.76777 -0.29607,2.15942 -0.43083,4.34616 -0.69992,6.50236 -2.79383,7.06201 -6.11925,13.94063 -9.54894,20.65709 -4.59266,8.95328 -9.56205,17.86027 -15.04223,26.35876 -1.23403,1.90928 -2.51609,3.7894 -3.89918,5.59437 -0.42314,0.5464 -1.04067,1.32152 -1.57256,1.93535 -0.52451,0.61071 -1.06331,1.21012 -1.62666,1.78535 0.10775,-4.78431 0.75319,-9.78467 -1.07226,-14.35156 -0.861,-2.1237 -2.32955,-3.99434 -4.17774,-5.34766 2.82064,-4.01331 4.2817,-8.82465 5.06123,-13.62326 0.74335,-5.07923 0.47809,-10.58945 -2.21553,-15.09354 -1.89749,-3.00381 -5.75366,-4.70238 -9.2246,-3.72851 -2.77484,0.71309 -4.89585,2.87503 -6.31879,5.27433 -1.02831,1.54873 -1.97792,3.15074 -2.81793,4.80965 0.19667,-5.14713 0.41425,-10.29345 0.63867,-15.43945 9.5407,-9.26877 17.85809,-19.73692 25.31511,-30.73381 7.12667,-10.62489 13.51437,-21.78942 18.52246,-33.57482 3.53358,-8.40474 6.36081,-17.16638 7.70673,-26.20263 1.24066,-8.7562 0.78068,-17.8096 -1.77282,-26.29734 -1.64478,-5.16523 -4.22144,-10.1875 -8.21943,-13.92562 -3.56769,-3.30155 -8.35508,-5.33043 -13.25322,-5.15445 z m 3.27148,12.125 c 2.62578,0.10701 4.61155,2.19552 5.98991,4.24187 2.82138,4.26434 3.63277,9.44763 4.28578,14.4175 0.7274,5.83502 0.30671,11.77009 -0.96843,17.49986 -0.58677,2.79532 -1.35825,5.54786 -2.18617,8.28022 -0.19091,0.58272 -0.47389,1.48608 -0.70117,2.19141 -4.05718,12.46671 -10.26658,24.11378 -17.29218,35.1415 -3.16039,4.99697 -6.55138,10.01028 -10.03594,14.68271 -3.07905,4.12818 -6.40821,8.21683 -9.8086,11.98633 -0.0777,-0.34174 0.0689,-1.20352 0.0773,-1.74493 1.01327,-14.41521 2.50995,-28.80498 4.50075,-43.15745 1.7239,-11.99082 3.91308,-23.9375 7.11707,-35.62793 1.6238,-5.70324 3.44685,-11.39911 6.18477,-16.67795 2.12894,-3.9739 4.9028,-7.8437 8.88426,-10.1256 1.21082,-0.64976 2.55705,-1.16338 3.95262,-1.10754 z m 31.82031,85.08007 c -3.50756,0.162 -7.093,2.39429 -8.03906,5.90626 -1.15244,3.89429 0.024,8.59468 3.44886,10.97897 2.94698,2.22385 7.3562,2.22435 10.24645,-0.10593 2.7168,-2.00951 3.94873,-5.58042 3.49018,-8.87462 -0.29926,-3.36484 -2.60035,-6.56614 -5.90347,-7.5296 -1.04416,-0.33403 -2.1514,-0.42919 -3.24296,-0.37508 z m -218.38476,15.50977 c 0.27314,3.36701 -0.11188,6.75418 -0.67969,10.07227 -0.50532,-2.11068 -0.51531,-4.32026 -0.32136,-6.47195 0.1575,-1.22384 0.45544,-2.5629 1.00105,-3.60032 z m 435.42969,16.15625 c 4.01817,-0.0739 7.56658,2.4451 10.01757,5.44141 2.493,2.97236 4.42019,6.38191 5.95313,9.93554 -0.15513,1.16167 -0.55557,2.29045 -0.66574,3.44668 -0.0516,0.73042 0.4472,1.22511 0.88058,1.74473 0.78234,0.32825 1.67604,0.41424 2.42383,-0.0605 1.2623,2.30183 2.52603,4.60287 3.78906,6.9043 0.46545,-3.30144 0.93087,-6.60288 1.39649,-9.9043 1.63546,-0.73411 3.46352,-1.60483 4.20745,-3.34655 0.38409,-1.45134 0.79151,-2.90825 1.61286,-4.1847 1.91294,-3.32638 4.31203,-6.44313 7.33939,-8.82646 1.25189,-0.85314 2.9712,-1.09449 4.34616,-0.38252 1.89435,0.75011 3.5472,2.33894 3.88737,4.41203 1.22875,4.77757 0.64304,9.86314 -0.81016,14.52193 -0.76441,2.43009 -2.08841,4.64467 -3.74381,6.57078 -0.58854,0.76685 -1.06124,1.34946 -1.69255,2.12133 -3.03221,3.73397 -6.48806,7.12106 -10.33759,10.0092 -1.94077,1.51206 -3.94325,2.94431 -5.99076,4.30809 -4.27874,-2.41698 -8.37359,-5.22707 -11.81138,-8.76255 -5.83246,-5.8746 -10.58836,-12.89205 -13.55255,-20.63887 -1.20231,-3.52043 -1.97099,-7.50588 -0.59577,-11.09239 0.30171,-0.68875 0.63656,-1.46836 1.20519,-1.94434 0.70012,-0.17282 1.42043,-0.26039 2.14123,-0.27279 z m -338.1543,0.32422 c 0.99877,0.085 1.93273,0.54146 2.71875,1.14648 -0.62992,1.51023 -1.3033,3.01809 -2.04075,4.5535 -3.05314,6.25276 -6.49194,12.32259 -10.30999,18.1403 -2.72357,4.09127 -5.62511,8.11314 -9.12857,11.57741 -0.53446,0.48354 -1.10891,0.93059 -1.74921,1.2659 -0.72841,-4.08002 0.59819,-8.13141 1.65303,-12.03046 2.16527,-7.33323 5.45699,-14.49426 10.60869,-20.22149 2.14995,-2.28773 4.92291,-4.56509 8.24805,-4.43164 z m 250.54883,-0.01 c 1.09077,0.0136 2.12124,0.50194 2.97461,1.1543 -2.89487,6.88551 -6.57421,13.4125 -10.47208,19.77267 -3.21101,5.07685 -6.62491,10.09195 -10.86777,14.37186 -0.57904,0.52651 -1.18906,1.03216 -1.88672,1.39453 -0.73206,-4.04411 0.58402,-8.06573 1.62173,-11.93381 2.17921,-7.40086 5.49305,-14.63903 10.71492,-20.40022 2.08311,-2.2039 4.72768,-4.3506 7.91531,-4.35933 z M 200.5332,299.9082 c 0.85918,-0.0165 1.88541,0.37504 1.98477,1.35194 0.48767,1.56637 0.33951,3.50116 -1.00012,4.61286 -2.21841,2.1978 -5.41226,2.95192 -8.40652,3.37505 1.07626,-3.06635 2.5177,-6.15784 4.96883,-8.36643 0.70375,-0.53613 1.54004,-1.00776 2.45304,-0.97342 z" />
	
</g>
</svg>
