<?xml version="1.0" encoding="UTF-8" standalone="no"?>
<!-- Created with Inkscape (http://www.inkscape.org/) -->

<svg
   width="5.579886mm"
   height="4.1849999mm"
   viewBox="0 0 5.579886 4.1849999"
   version="1.1"
   id="svg1123"
   xmlns="http://www.w3.org/2000/svg"
   xmlns:svg="http://www.w3.org/2000/svg">
  <defs
     id="defs1120" />
  <g
     id="layer1"
     transform="translate(-62.888777,-121.41654)">
    <path
       d="m 68.329316,124.34601 h -0.418394 v -2.37137 c 0,-0.30798 -0.250472,-0.5581 -0.558095,-0.5581 h -3.347861 c -0.307622,0 -0.558094,0.25012 -0.558094,0.5581 v 2.37137 h -0.418395 c -0.07726,0 -0.1397,0.0624 -0.1397,0.13934 v 0.41875 c 0,0.38453 0.312914,0.69744 0.697442,0.69744 h 4.185003 c 0.38488,0 0.697441,-0.31291 0.697441,-0.69744 v -0.41875 c 0,-0.0769 -0.06244,-0.13934 -0.139347,-0.13934 m -4.603397,-2.37137 c 0,-0.15417 0.124883,-0.27905 0.279047,-0.27905 h 3.347861 c 0.154164,0 0.279048,0.12488 0.279048,0.27905 v 2.37137 H 66.29908 c -0.03563,0 -0.06138,0.0272 -0.06914,0.0617 -0.02822,0.12453 -0.139348,0.21731 -0.271992,0.21731 H 65.39985 c -0.132645,0 -0.244123,-0.0928 -0.271992,-0.21731 -0.0081,-0.0346 -0.03387,-0.0617 -0.06915,-0.0617 h -1.332794 z m 4.46405,2.92946 c 0,0.23072 -0.188031,0.4184 -0.418747,0.4184 h -4.185003 c -0.230717,0 -0.418394,-0.18768 -0.418394,-0.4184 v -0.27905 h 1.697919 c 0.0575,0.16228 0.212725,0.27905 0.394406,0.27905 h 0.837141 c 0.182034,0 0.337256,-0.11677 0.394406,-0.27905 h 1.698272 z"
       style="fill:#fff;fill-opacity:1;fill-rule:nonzero;stroke:none;stroke-width:0.352778"
       id="path953" />
  </g>
</svg>
