<?xml version="1.0" encoding="UTF-8" standalone="no"?>
<!-- Created with Inkscape (http://www.inkscape.org/) -->

<svg
   width="5.5714211mm"
   height="3.90031mm"
   viewBox="0 0 5.5714211 3.90031"
   version="1.1"
   id="svg1259"
   xmlns="http://www.w3.org/2000/svg"
   xmlns:svg="http://www.w3.org/2000/svg">
  <defs
     id="defs1256" />
  <g
     id="layer1"
     transform="translate(-46.370062,-124.4504)">
    <path
       d="m 50.548715,126.40055 c 0.461433,0 0.835731,-0.37429 0.835731,-0.83573 0,-0.46143 -0.374298,-0.83573 -0.835731,-0.83573 -0.461433,0 -0.835731,0.3743 -0.835731,0.83573 0,0.46144 0.374298,0.83573 0.835731,0.83573 m 0,-1.39276 c 0.307269,0 0.557036,0.24976 0.557036,0.55703 0,0.30727 -0.249767,0.55704 -0.557036,0.55704 -0.307269,0 -0.557036,-0.24977 -0.557036,-0.55704 0,-0.30727 0.249767,-0.55703 0.557036,-0.55703 m -2.507192,1.39276 c 0.539045,0 0.975078,-0.43603 0.975078,-0.97507 0,-0.5387 -0.436033,-0.97508 -0.975078,-0.97508 -0.538691,0 -0.975077,0.43638 -0.975077,0.97508 0,0.53904 0.436386,0.97507 0.975077,0.97507 m 0,-1.67146 c 0.383823,0 0.696384,0.31256 0.696384,0.69639 0,0.38382 -0.312561,0.69638 -0.696384,0.69638 -0.383822,0 -0.696383,-0.31256 -0.696383,-0.69638 0,-0.38383 0.312561,-0.69639 0.696383,-0.69639 m 0.697442,1.84574 c -0.290689,0 -0.363008,0.10442 -0.697442,0.10442 -0.33408,0 -0.4064,-0.10442 -0.697089,-0.10442 -0.316088,0 -0.623358,0.14075 -0.803627,0.40816 -0.10795,0.16016 -0.170745,0.35243 -0.170745,0.55986 v 0.38982 c 0,0.23071 0.187325,0.41804 0.418042,0.41804 h 2.507192 c 0.230363,0 0.417688,-0.18733 0.417688,-0.41804 v -0.38982 c 0,-0.20743 -0.06279,-0.3997 -0.170744,-0.55986 -0.179917,-0.26741 -0.487186,-0.40816 -0.803275,-0.40816 m 0.695325,1.35784 c 0,0.0765 -0.06244,0.13935 -0.138994,0.13935 h -2.507192 c -0.07655,0 -0.139347,-0.0628 -0.139347,-0.13935 v -0.38982 c 0,-0.14464 0.04269,-0.28469 0.122766,-0.40393 0.119945,-0.17851 0.334081,-0.28575 0.571853,-0.28575 0.238478,0 0.32385,0.10442 0.698147,0.10442 0.374298,0 0.45967,-0.10442 0.697442,-0.10442 0.237419,0 0.451556,0.10724 0.571853,0.28575 0.08008,0.11924 0.122766,0.25929 0.122766,0.40393 v 0.38982 z m 2.365375,-1.00013 c -0.150636,-0.22295 -0.4064,-0.34043 -0.669572,-0.34043 -0.242006,0 -0.302684,0.0871 -0.581378,0.0871 -0.278694,0 -0.339372,-0.0871 -0.581378,-0.0871 -0.115005,0 -0.227189,0.0261 -0.331964,0.0706 0.132292,0.13405 0.16122,0.20531 0.176036,0.23142 0.04974,-0.0138 0.100895,-0.0226 0.155928,-0.0226 0.189795,0 0.261056,0.0871 0.581378,0.0871 0.320322,0 0.391583,-0.0871 0.581378,-0.0871 0.183091,0 0.34678,0.0808 0.438855,0.21767 0.06174,0.0914 0.0949,0.19932 0.0949,0.31079 v 0.32385 c 0,0.0381 -0.0314,0.0695 -0.0695,0.0695 h -1.602669 c 0,0.15416 0.0025,0.19579 -0.01411,0.2787 h 1.615722 c 0.192617,0 0.348192,-0.15593 0.348192,-0.3482 v -0.3249 c 0,-0.17322 -0.05221,-0.33338 -0.141817,-0.46638"
       style="fill:#c73d5b;fill-opacity:1;fill-rule:nonzero;stroke:none;stroke-width:0.352778"
       id="path961" />
  </g>
</svg>
